<svg xmlns="http://www.w3.org/2000/svg" width="1024" height="1024" viewBox="0 0 1024 1024" version="1.1"><path d="M 571 225.692 C 571 231.733, 570.706 247.453, 570.346 260.625 C 569.692 284.573, 569.692 284.573, 585.096 285.750 C 883.387 308.537, 883.301 713.184, 585 733.549 C 574.750 734.249, 575.141 731.080, 576.876 799.369 C 577.184 811.488, 656.250 796.804, 703.244 775.900 C 963.592 660.092, 929.613 298.989, 651.500 226.012 C 597.799 211.921, 571 211.814, 571 225.692 M 414.500 293 C 341.505 366, 341.505 366, 229.253 366 C 117 366, 117 366, 117 503.500 C 117 641, 117 641, 226.748 641 C 336.495 641, 336.495 641, 418.248 722.748 C 500 804.495, 500 804.495, 499.995 790.998 C 499.992 783.574, 497.519 657.575, 494.498 511 C 491.477 364.425, 489.005 238.988, 489.003 232.250 C 488.999 216.762, 498.385 209.109, 414.500 293 M 572.619 399.659 C 572.235 418.687, 572.127 434.460, 572.377 434.711 C 572.628 434.961, 576.133 435.579, 580.166 436.082 C 668.369 447.100, 669.649 576.671, 581.666 587.957 C 577.908 588.439, 574.673 588.994, 574.478 589.189 C 573.912 589.755, 575.442 657.776, 576.034 658.368 C 578.683 661.015, 614.070 653.543, 628.650 647.257 C 770.642 586.041, 734.412 378.792, 579.408 365.583 C 573.316 365.064, 573.316 365.064, 572.619 399.659" stroke="none" fill="#fbfbfb" fill-rule="evenodd"/><path d="M 126.775 1.532 C 63.423 10.170, 14.557 55.381, 2.006 116.969 C -1.155 132.481, -1.155 891.519, 2.006 907.031 C 14.652 969.086, 63.687 1014.114, 127.765 1022.514 C 144.890 1024.759, 879.110 1024.759, 896.235 1022.514 C 960.136 1014.137, 1011.629 966.676, 1022.104 906.500 C 1022.774 902.650, 1023.700 899.072, 1024.161 898.550 C 1025.237 897.331, 1025.269 123.716, 1024.193 124.381 C 1023.749 124.655, 1022.833 121.651, 1022.156 117.706 C 1011.839 57.538, 960.191 9.870, 896.235 1.486 C 880.192 -0.617, 142.213 -0.573, 126.775 1.532 M 0.495 512 C 0.495 725.125, 0.610 812.312, 0.750 705.750 C 0.890 599.187, 0.890 424.812, 0.750 318.250 C 0.610 211.687, 0.495 298.875, 0.495 512 M 571 225.692 C 571 231.733, 570.706 247.453, 570.346 260.625 C 569.692 284.573, 569.692 284.573, 585.096 285.750 C 883.387 308.537, 883.301 713.184, 585 733.549 C 574.750 734.249, 575.141 731.080, 576.876 799.369 C 577.184 811.488, 656.250 796.804, 703.244 775.900 C 963.592 660.092, 929.613 298.989, 651.500 226.012 C 597.799 211.921, 571 211.814, 571 225.692 M 414.500 293 C 341.505 366, 341.505 366, 229.253 366 C 117 366, 117 366, 117 503.500 C 117 641, 117 641, 226.748 641 C 336.495 641, 336.495 641, 418.248 722.748 C 500 804.495, 500 804.495, 499.995 790.998 C 499.992 783.574, 497.519 657.575, 494.498 511 C 491.477 364.425, 489.005 238.988, 489.003 232.250 C 488.999 216.762, 498.385 209.109, 414.500 293 M 572.619 399.659 C 572.235 418.687, 572.127 434.460, 572.377 434.711 C 572.628 434.961, 576.133 435.579, 580.166 436.082 C 668.369 447.100, 669.649 576.671, 581.666 587.957 C 577.908 588.439, 574.673 588.994, 574.478 589.189 C 573.912 589.755, 575.442 657.776, 576.034 658.368 C 578.683 661.015, 614.070 653.543, 628.650 647.257 C 770.642 586.041, 734.412 378.792, 579.408 365.583 C 573.316 365.064, 573.316 365.064, 572.619 399.659" stroke="none" fill="#a41c14" fill-rule="evenodd"/></svg>